<svg width="76" height="38" viewBox="0 0 76 38" fill="none" xmlns="http://www.w3.org/2000/svg">
<g clip-path="url(#clip0_11_76)">
<path d="M0.00174936 13.1317C0.00174936 9.71604 4.17864 8.90606 9.11226 8.37545V8.12245C9.11226 5.79443 7.8033 5.08636 6.2933 5.08636C4.78333 5.08636 3.65084 5.89633 3.57569 7.54091H0.6309C0.831878 4.78239 3.12305 2.86023 6.39465 2.86023C9.66625 2.86023 12.1829 4.35368 12.1078 8.704C12.1078 9.36111 12.057 10.9811 12.057 12.2216C12.057 13.9416 12.1829 15.739 12.459 16.8776H9.71521C9.61385 16.296 9.53866 15.9675 9.46354 15.031C8.58274 16.5245 7.02206 17.2061 5.00877 17.2061C2.06398 17.2061 0 15.6125 0 13.1334L0.00174936 13.1317ZM9.18745 10.4751C4.93363 10.8792 3.17198 11.5117 3.17198 13.0561C3.17198 14.2456 4.15417 14.9537 5.66414 14.9537C7.87842 14.9537 9.18745 13.8398 9.18745 11.5134V10.4768V10.4751Z" fill="black"/>
<path d="M17.7465 5.21185C18.5139 3.79951 19.9027 3.01624 21.7853 3.01624C25.0067 3.01624 26.3198 5.1365 26.3198 8.36595V16.8944H23.3702V9.09664C23.3702 7.27956 23.1224 5.46243 20.8423 5.46243C18.5621 5.46243 17.7447 7.22874 17.7447 9.67666V16.8926H14.7952V3.31938H17.7447V5.21185H17.7465Z" fill="black"/>
<path d="M37.6847 0.365356H40.6474V16.8753H37.6847V15.0758C36.8878 16.4192 35.4946 17.2062 33.7021 17.2062C30.5164 17.2062 27.877 14.4419 27.877 10.0562C27.877 5.67028 30.5147 2.93242 33.7021 2.93242C35.4946 2.93242 36.8878 3.71769 37.6847 5.06284V0.365356ZM34.3486 5.39033C32.3573 5.39033 30.9641 7.18974 30.9641 10.0562C30.9641 12.9225 32.3573 14.7466 34.3486 14.7466C36.3398 14.7466 37.8091 13.2007 37.8091 10.0562C37.8091 6.91156 36.2655 5.39033 34.3486 5.39033Z" fill="black"/>
<path d="M3.76972 25.103C4.54759 23.6824 5.95509 22.8946 7.86313 22.8946C11.1281 22.8946 12.4589 25.0273 12.4589 28.2756V36.8538H9.46951V29.0106C9.46951 27.1828 9.21834 25.3551 6.90738 25.3551C4.59643 25.3551 3.76797 27.1317 3.76797 29.594V36.8521H0.778564V20.3248H3.76797V25.1013L3.76972 25.103Z" fill="black"/>
<path d="M31.7943 36.8541H28.8113V23.2791H31.7943V25.1715C32.5705 23.7592 33.9002 22.976 35.7032 22.976C37.8091 22.976 39.0117 23.8591 39.6383 25.3731C40.8165 23.6575 42.3446 22.976 44.0241 22.976C47.2316 22.976 48.4342 25.0962 48.4342 28.3257V36.8541H45.4512V29.0564C45.4512 27.2393 45.2754 25.4221 43.0703 25.4221C40.8652 25.4221 40.1134 27.1885 40.1134 29.6364V36.8523H37.1304V29.0546C37.1304 27.2375 36.9546 25.4204 34.7495 25.4204C32.5444 25.4204 31.7926 27.1867 31.7926 29.6346V36.8506L31.7943 36.8541Z" fill="black"/>
<path d="M49.8374 32.9798C49.8374 29.6013 54.0143 28.8001 58.948 28.2752V28.025C58.948 25.7223 57.6389 25.0219 56.129 25.0219C54.619 25.0219 53.4865 25.823 53.4114 27.4497H50.4666C50.6676 24.7212 52.9587 22.8199 56.2304 22.8199C59.5019 22.8199 62.0186 24.2972 61.9434 28.6002C61.9434 29.2502 61.8927 30.8526 61.8927 32.0795C61.8927 33.7809 62.0186 35.5588 62.2947 36.685H59.5509C59.4495 36.1097 59.3744 35.7847 59.2992 34.8584C58.4184 36.3357 56.8577 37.0099 54.8445 37.0099C51.8997 37.0099 49.8357 35.4337 49.8357 32.9815L49.8374 32.9798ZM59.0231 30.3521C54.7693 30.7517 53.0077 31.3774 53.0077 32.905C53.0077 34.0815 53.9898 34.782 55.4998 34.782C57.7141 34.782 59.0231 33.6801 59.0231 31.3792V30.3537V30.3521Z" fill="black"/>
<path d="M67.1953 25.1715C67.9836 23.7592 69.4098 22.976 71.3434 22.976C74.6518 22.976 76.0001 25.0962 76.0001 28.3257V36.8541H72.9711V29.0564C72.9711 27.2393 72.7166 25.4221 70.3748 25.4221C68.0331 25.4221 67.1936 27.1885 67.1936 29.6364V36.8523H64.1643V23.2773H67.1936V25.1698L67.1953 25.1715Z" fill="black"/>
<path d="M23.777 19.1735C23.9706 19.0271 24.1736 18.921 24.3772 18.8551C24.5363 18.8036 24.7111 18.612 24.8514 18.6097C25.051 18.6063 25.2443 18.8076 25.4225 18.8843C25.6543 18.9841 25.8606 19.1515 26.0219 19.386C26.7652 20.4682 25.9011 21.2091 25.7543 21.3202L24.8121 22.1488L24.3772 22.1255C24.0892 22.1956 23.4834 22.3302 23.1377 21.8291C22.6211 21.0745 22.9667 19.7858 23.777 19.1735Z" fill="black"/>
<path d="M17.7932 21.0636C17.4039 21.9153 16.6124 22.3199 15.9072 21.9968C14.8675 21.5205 14.6668 20.5139 14.7387 20.3566L14.7386 19.6208L15.3102 19.2121L15.9634 18.8034C16.1651 18.6074 16.7344 18.4692 17.2163 18.6899C17.9397 19.0214 18.1913 20.1923 17.7932 21.0636Z" fill="black"/>
<path d="M26.3849 26.3061L26.4025 28.4971C26.4402 30.3196 25.7506 32.9342 25.6379 33.2479L25.3776 34.1154L24.1094 35.5708C24.1094 35.5708 21.8805 37.0413 20.7375 37.0413C18.4535 36.9595 16.8335 36.3987 16.8335 36.3987L16.5907 35.9318C16.2407 35.6284 15.2517 34.4931 14.8397 30.8634C14.7216 29.8226 14.7328 29.1772 14.7643 28.5277L14.8255 26.6499L15.1341 24.9628C15.098 24.6448 15.7009 23.3622 16.1794 23.3076C16.6579 23.2532 17.6351 23.8809 17.7115 24.1749L17.9749 25.0056L17.9311 25.5474L18.0957 26.6861L17.9252 28.1469L17.7668 28.788L17.924 31.7557L18.2665 33.1906L18.4535 33.729C18.6518 33.9863 19.1771 34.3211 20.1749 34.2076C21.4435 34.0633 22.0344 33.2662 22.245 33.0698L22.828 31.5197L23.1036 31.1663C23.2294 30.786 23.8126 28.702 23.6777 27.5134C23.5572 26.4519 23.4076 26.0605 23.6434 25.5392L24.0592 24.5679C24.2541 24.0511 24.8364 23.9849 25.3354 23.9281C25.7934 23.876 26.5323 24.6103 26.5016 25.0855L26.3862 26.3024L26.3849 26.3061Z" fill="black"/>
<path d="M23.777 19.1735C23.9706 19.0271 24.1736 18.921 24.3772 18.8551C24.5363 18.8036 24.7111 18.612 24.8514 18.6097C25.051 18.6063 25.2443 18.8076 25.4225 18.8843C25.6543 18.9841 25.8606 19.1515 26.0219 19.386C26.7652 20.4682 25.9011 21.2091 25.7543 21.3202L24.8121 22.1488L24.3772 22.1255C24.0892 22.1956 23.4834 22.3302 23.1377 21.8291C22.6211 21.0745 22.9667 19.7858 23.777 19.1735Z" fill="black"/>
<path d="M17.7932 21.0636C17.4039 21.9153 16.6124 22.3199 15.9072 21.9968C14.8675 21.5205 14.6668 20.5139 14.7387 20.3566L14.7386 19.6208L15.3102 19.2121L15.9634 18.8034C16.1651 18.6074 16.7344 18.4692 17.2163 18.6899C17.9397 19.0214 18.1913 20.1923 17.7932 21.0636Z" fill="black"/>
<path d="M26.3849 26.3061L26.4025 28.4971C26.4402 30.3196 25.7506 32.9342 25.6379 33.2479L25.3776 34.1154L24.1094 35.5708C24.1094 35.5708 21.8805 37.0413 20.7375 37.0413C18.4535 36.9595 16.8335 36.3987 16.8335 36.3987L16.5907 35.9318C16.2407 35.6284 15.2517 34.4931 14.8397 30.8634C14.7216 29.8226 14.7328 29.1772 14.7643 28.5277L14.8255 26.6499L15.1341 24.9628C15.098 24.6448 15.7009 23.3622 16.1794 23.3076C16.6579 23.2532 17.6351 23.8809 17.7115 24.1749L17.9749 25.0056L17.9311 25.5474L18.0957 26.6861L17.9252 28.1469L17.7668 28.788L17.924 31.7557L18.2665 33.1906L18.4535 33.729C18.6518 33.9863 19.1771 34.3211 20.1749 34.2076C21.4435 34.0633 22.0344 33.2662 22.245 33.0698L22.828 31.5197L23.1036 31.1663C23.2294 30.786 23.8126 28.702 23.6777 27.5134C23.5572 26.4519 23.4076 26.0605 23.6434 25.5392L24.0592 24.5679C24.2541 24.0511 24.8364 23.9849 25.3354 23.9281C25.7934 23.876 26.5323 24.6103 26.5016 25.0855L26.3862 26.3024L26.3849 26.3061Z" fill="black"/>
</g>
<defs>
<clipPath id="clip0_11_76">
<rect width="76" height="38" fill="white"/>
</clipPath>
</defs>
</svg>
