
<svg width="335" height="165" viewBox="0 0 335 165" fill="none" xmlns="http://www.w3.org/2000/svg">
<path d="M0.00771093 56.2712C0.00771093 41.2157 18.4189 37.6454 40.1656 35.3065V34.1913C40.1656 23.9296 34.3957 20.8085 27.74 20.8085C21.0842 20.8085 16.0924 24.3788 15.7611 31.6278H2.78092C3.66681 19.4687 13.766 10.9961 28.1868 10.9961C42.6075 10.9961 53.7005 17.579 53.3692 36.7547C53.3692 39.6512 53.1458 46.7918 53.1458 52.2595C53.1458 59.8415 53.7005 67.7643 54.9176 72.7828H42.8232C42.3764 70.2193 42.0452 68.7711 41.7139 64.6432C37.8314 71.2261 30.9523 74.231 22.078 74.231C9.09771 74.231 0 67.2066 0 56.279L0.00771093 56.2712ZM40.4968 44.5613C21.7467 46.3426 13.9817 49.1307 13.9817 55.9382C13.9817 61.1813 18.311 64.3024 24.9667 64.3024C34.727 64.3024 40.4968 59.3923 40.4968 49.1384V44.5691V44.5613Z" fill="#242424"/>
<path d="M78.2246 21.363C81.6076 15.1376 87.729 11.6851 96.0273 11.6851C110.227 11.6851 116.015 21.0309 116.015 35.266V72.858H103.013V38.4868C103.013 30.4772 101.921 22.4676 91.8706 22.4676C81.8201 22.4676 78.217 30.2532 78.217 41.0434V72.8502H65.2158V13.0213H78.217V21.363H78.2246Z" fill="#242424"/>
<path d="M166.11 0H179.169V72.7733H166.11V64.8417C162.598 70.7632 156.457 74.2323 148.556 74.2323C134.513 74.2323 122.879 62.0478 122.879 42.7156C122.879 23.3834 134.506 11.3153 148.556 11.3153C156.457 11.3153 162.598 14.7766 166.11 20.7059V0ZM151.405 22.1494C142.628 22.1494 136.487 30.081 136.487 42.7156C136.487 55.3502 142.628 63.3904 151.405 63.3904C160.182 63.3904 166.659 56.5764 166.659 42.7156C166.659 28.8548 159.855 22.1494 151.405 22.1494Z" fill="#242424"/>
<path d="M16.6162 109.041C20.045 102.779 26.249 99.3062 34.6595 99.3062C49.0511 99.3062 54.9169 108.707 54.9169 123.025V160.837H41.74V126.265C41.74 118.208 40.6329 110.152 30.4466 110.152C20.2603 110.152 16.6085 117.983 16.6085 128.836V160.829H3.43164V87.979H16.6085V109.033L16.6162 109.041Z" fill="#242424"/>
<path d="M140.146 160.838H126.997V101.001H140.146V109.343C143.567 103.118 149.428 99.665 157.376 99.665C166.658 99.665 171.959 103.558 174.721 110.231C179.915 102.67 186.65 99.665 194.053 99.665C208.191 99.665 213.492 109.011 213.492 123.246V160.838H200.343V126.467C200.343 118.457 199.569 110.448 189.849 110.448C180.129 110.448 176.815 118.233 176.815 129.023V160.83H163.666V126.459C163.666 118.449 162.892 110.44 153.172 110.44C143.452 110.44 140.138 118.225 140.138 129.016V160.823L140.146 160.838Z" fill="#242424"/>
<path d="M219.678 143.761C219.678 128.869 238.089 125.337 259.835 123.024V121.921C259.835 111.77 254.066 108.683 247.41 108.683C240.754 108.683 235.762 112.215 235.431 119.385H222.451C223.337 107.358 233.436 98.9775 247.857 98.9775C262.277 98.9775 273.37 105.489 273.039 124.456C273.039 127.321 272.816 134.384 272.816 139.792C272.816 147.292 273.37 155.129 274.588 160.093H262.493C262.046 157.557 261.715 156.125 261.384 152.042C257.501 158.553 250.622 161.525 241.748 161.525C228.768 161.525 219.67 154.577 219.67 143.768L219.678 143.761ZM260.167 132.178C241.417 133.94 233.652 136.698 233.652 143.431C233.652 148.617 237.981 151.704 244.637 151.704C254.397 151.704 260.167 146.848 260.167 136.705V132.186V132.178Z" fill="#242424"/>
<path d="M296.188 109.343C299.663 103.118 305.95 99.665 314.472 99.665C329.056 99.665 335 109.011 335 123.246V160.838H321.647V126.467C321.647 118.457 320.525 110.448 310.203 110.448C299.881 110.448 296.181 118.233 296.181 129.023V160.83H282.828V100.994H296.181V109.335L296.188 109.343Z" fill="#242424"/>
<path d="M104.804 82.9061C105.658 82.2607 106.553 81.7932 107.45 81.5027C108.151 81.2756 108.921 80.4309 109.54 80.4206C110.42 80.4059 111.272 81.2928 112.057 81.631C113.079 82.0711 113.989 82.8092 114.699 83.8429C117.976 88.6127 114.167 91.8785 113.52 92.3684L109.367 96.0209L107.45 95.9178C106.18 96.2272 103.51 96.8202 101.986 94.6115C99.709 91.2855 101.233 85.6047 104.804 82.9061Z" fill="#242424"/>
<path d="M78.4315 91.2323C76.7156 94.9868 73.2268 96.77 70.1182 95.3457C65.5356 93.2461 64.6508 88.8096 64.9678 88.1159L64.9674 84.8727L67.4867 83.0712L70.3658 81.2695C71.2549 80.4055 73.7646 79.7965 75.8884 80.7696C79.0775 82.2307 80.1866 87.392 78.4315 91.2323Z" fill="#242424"/>
<path d="M116.3 114.345L116.377 124.003C116.544 132.036 113.504 143.561 113.007 144.944L111.86 148.767L106.27 155.183C106.27 155.183 96.4456 161.665 91.4073 161.665C81.3398 161.304 74.1987 158.832 74.1987 158.832L73.1288 156.774C71.5857 155.437 67.2264 150.433 65.4105 134.433C64.8898 129.846 64.9394 127.001 65.0782 124.138L65.3476 115.861L66.7082 108.424C66.5491 107.023 69.2067 101.369 71.3158 101.129C73.4249 100.889 77.732 103.656 78.0691 104.952L79.2298 108.613L79.037 111.001L79.7627 116.02L79.011 122.459L78.3129 125.285L79.0057 138.366L80.5155 144.691L81.3398 147.065C82.2136 148.199 84.5291 149.674 88.9275 149.174C94.5193 148.538 97.1239 145.024 98.052 144.159L100.622 137.327L101.836 135.769C102.391 134.092 104.962 124.906 104.367 119.667C103.836 114.988 103.177 113.263 104.216 110.965L106.049 106.684C106.908 104.406 109.475 104.114 111.674 103.864C113.693 103.634 116.949 106.871 116.815 108.965L116.306 114.329L116.3 114.345Z" fill="#242424"/>
<path d="M104.804 82.9061C105.658 82.2607 106.553 81.7932 107.45 81.5027C108.151 81.2756 108.921 80.4309 109.54 80.4206C110.42 80.4059 111.272 81.2928 112.057 81.631C113.079 82.0711 113.989 82.8092 114.699 83.8429C117.976 88.6127 114.167 91.8785 113.52 92.3684L109.367 96.0209L107.45 95.9178C106.18 96.2272 103.51 96.8202 101.986 94.6115C99.709 91.2855 101.233 85.6047 104.804 82.9061Z" fill="#242424"/>
<path d="M78.4315 91.2323C76.7156 94.9868 73.2268 96.77 70.1182 95.3457C65.5356 93.2461 64.6508 88.8096 64.9678 88.1159L64.9674 84.8727L67.4867 83.0712L70.3658 81.2695C71.2549 80.4055 73.7646 79.7965 75.8884 80.7696C79.0775 82.2307 80.1866 87.392 78.4315 91.2323Z" fill="#242424"/>
<path d="M116.3 114.345L116.377 124.003C116.544 132.036 113.504 143.561 113.007 144.944L111.86 148.767L106.27 155.183C106.27 155.183 96.4456 161.665 91.4073 161.665C81.3398 161.304 74.1987 158.832 74.1987 158.832L73.1288 156.774C71.5857 155.437 67.2264 150.433 65.4105 134.433C64.8898 129.846 64.9394 127.001 65.0782 124.138L65.3476 115.861L66.7082 108.424C66.5491 107.023 69.2067 101.369 71.3158 101.129C73.4249 100.889 77.732 103.656 78.0691 104.952L79.2298 108.613L79.037 111.001L79.7627 116.02L79.011 122.459L78.3129 125.285L79.0057 138.366L80.5155 144.691L81.3398 147.065C82.2136 148.199 84.5291 149.674 88.9275 149.174C94.5193 148.538 97.1239 145.024 98.052 144.159L100.622 137.327L101.836 135.769C102.391 134.092 104.962 124.906 104.367 119.667C103.836 114.988 103.177 113.263 104.216 110.965L106.049 106.684C106.908 104.406 109.475 104.114 111.674 103.864C113.693 103.634 116.949 106.871 116.815 108.965L116.306 114.329L116.3 114.345Z" fill="#242424"/>
</svg>