<svg width="24" height="33" viewBox="0 0 24 33" fill="none" xmlns="http://www.w3.org/2000/svg">
<path d="M21.4245 13.9963L21.4536 17.6131C21.5161 20.6219 20.3752 24.9381 20.1887 25.4561L19.7581 26.888L17.6602 29.2908C17.6602 29.2908 13.973 31.7183 12.0822 31.7183C8.3038 31.5833 5.62369 30.6575 5.62369 30.6575L5.22216 29.8867C4.64304 29.3859 3.00698 27.5117 2.32546 21.5196C2.13004 19.8015 2.14866 18.736 2.20076 17.6638L2.30187 14.5638L2.81248 11.7787C2.75278 11.2538 3.75018 9.13625 4.54174 9.04637C5.33331 8.95649 6.94975 9.99274 7.07629 10.4781L7.5119 11.8494L7.43955 12.7438L7.71188 14.6236L7.42976 17.0352L7.16777 18.0934L7.42778 22.9927L7.99442 25.3615L8.3038 26.2503C8.63173 26.675 9.50073 27.2277 11.1515 27.0403C13.2501 26.802 14.2276 25.4862 14.5759 25.1619L15.5404 22.6032L15.9962 22.0197C16.2044 21.3917 17.1692 17.9514 16.9461 15.9895C16.7467 14.2369 16.4992 13.5909 16.8892 12.7302L17.5771 11.1267C17.8996 10.2737 18.863 10.1643 19.6883 10.0706C20.4461 9.98455 21.6682 11.1968 21.6176 11.9812L21.4267 13.9902L21.4245 13.9963Z" fill="#242424"/>
<path d="M7.20968 5.34155C6.56571 6.74769 5.25635 7.41555 4.08966 6.88212C2.3698 6.09578 2.03772 4.4342 2.1567 4.1744L2.15654 2.95974L3.10207 2.28504L4.18258 1.61028C4.51627 1.28668 5.45818 1.05862 6.25525 1.42305C7.45212 1.97027 7.86837 3.90327 7.20968 5.34155Z" fill="#242424"/>
<path d="M17.1099 2.22173C17.4302 1.98 17.7661 1.80492 18.1029 1.69611C18.366 1.61107 18.6551 1.2947 18.8873 1.29084C19.2174 1.28535 19.5372 1.61752 19.8319 1.74417C20.2155 1.909 20.5568 2.18541 20.8236 2.57257C22.0533 4.35895 20.6238 5.58207 20.3809 5.76553L18.8223 7.13349L18.1029 7.09486C17.6263 7.21074 16.6241 7.43283 16.0523 6.60562C15.1976 5.35997 15.7695 3.2324 17.1099 2.22173Z" fill="#242424"/>
</svg>
